<?xml version="1.0" standalone="no"?>
<!DOCTYPE svg PUBLIC "-//W3C//DTD SVG 20010904//EN"
 "http://www.w3.org/TR/2001/REC-SVG-20010904/DTD/svg10.dtd">
<svg version="1.0" xmlns="http://www.w3.org/2000/svg"
 width="1280.000000pt" height="1234.000000pt" viewBox="0 0 1280.000000 1234.000000"
 preserveAspectRatio="xMidYMid meet">
<g transform="translate(0.000000,1234.000000) scale(0.100000,-0.100000)"
fill="#000000" stroke="none">
<path d="M3990 12321 c-5 -11 -10 -26 -10 -33 0 -19 -57 -86 -79 -93 -10 -3
-42 6 -71 19 -80 37 -101 23 -93 -63 6 -64 -27 -213 -53 -242 -9 -10 -34 -21
-56 -24 -54 -10 -152 -92 -181 -153 -16 -33 -34 -53 -63 -69 -22 -12 -64 -52
-93 -88 -29 -36 -58 -65 -64 -65 -7 0 -24 14 -39 32 -23 29 -29 31 -55 22 -26
-9 -28 -13 -29 -69 -3 -156 -66 -253 -169 -257 -46 -2 -65 16 -65 62 0 55 -8
68 -51 90 -26 14 -58 20 -103 20 -58 0 -67 -3 -83 -25 -51 -73 -48 -71 -85
-57 -18 8 -49 17 -68 22 -19 4 -51 15 -71 23 -61 27 -129 -2 -129 -54 0 -32
50 -142 79 -173 28 -32 41 -62 43 -100 1 -41 -16 -66 -46 -66 -46 0 -87 -76
-72 -134 3 -14 19 -40 35 -58 36 -41 44 -68 32 -101 -23 -60 -99 -41 -172 42
-37 41 -44 45 -97 49 -77 6 -108 29 -127 97 -13 44 -26 62 -67 97 -45 37 -57
42 -102 43 -56 0 -56 -2 -40 86 5 31 2 39 -17 53 -32 22 -36 21 -53 -13 -8
-15 -29 -34 -46 -41 -29 -12 -33 -11 -62 16 l-31 29 7 -35 c7 -39 45 -83 87
-100 27 -12 29 -16 29 -70 0 -49 4 -64 27 -90 33 -40 34 -83 3 -142 -27 -52
-20 -79 25 -101 48 -23 58 -53 44 -133 -24 -136 -109 -171 -175 -73 -16 23
-45 51 -65 62 -34 20 -41 20 -90 8 -80 -20 -99 -35 -99 -78 0 -24 8 -45 21
-59 21 -23 20 -54 -1 -54 -6 0 -21 11 -34 25 -13 14 -30 25 -37 25 -8 0 -45
-21 -84 -46 -54 -35 -76 -44 -97 -40 -47 9 -58 -1 -58 -56 0 -41 -5 -54 -29
-79 -17 -16 -40 -29 -54 -29 -37 0 -49 -22 -42 -73 6 -39 4 -45 -19 -61 -34
-22 -33 -31 11 -61 28 -19 51 -25 89 -25 96 0 117 -71 23 -78 -51 -4 -63 -12
-96 -67 -14 -22 -45 -59 -71 -82 l-46 -41 23 -74 c13 -40 32 -87 42 -104 23
-37 43 -136 34 -164 -4 -11 -20 -27 -37 -36 l-30 -16 22 -20 c18 -17 21 -28
16 -56 -9 -57 -22 -64 -137 -68 -96 -3 -105 -1 -159 26 -37 19 -66 42 -80 64
-17 29 -111 96 -134 96 -14 0 -4 -42 19 -76 34 -51 46 -98 33 -135 -10 -28 -7
-33 31 -68 22 -21 41 -46 41 -57 0 -10 -18 -44 -40 -75 l-39 -56 -97 -7 c-86
-6 -99 -4 -129 14 -46 28 -98 26 -146 -7 -21 -16 -39 -32 -39 -38 0 -5 18 -32
40 -60 55 -69 84 -131 75 -164 -3 -14 -8 -36 -11 -47 -4 -13 2 -34 13 -50 10
-15 23 -41 28 -58 7 -20 20 -33 42 -40 54 -18 66 -38 72 -122 6 -65 10 -79 31
-96 18 -14 34 -18 58 -14 18 2 40 2 49 -1 24 -9 63 -103 63 -151 0 -56 23 -89
71 -102 51 -14 95 -53 109 -96 17 -51 6 -75 -51 -113 -53 -36 -69 -62 -69
-112 0 -17 -9 -52 -21 -79 -20 -46 -20 -49 -3 -81 18 -37 31 -49 53 -49 10 0
12 11 7 48 -8 60 16 110 63 134 33 17 36 17 68 -3 39 -24 63 -14 63 28 0 65
49 85 78 31 9 -17 31 -45 48 -62 18 -17 37 -41 43 -53 7 -13 21 -23 32 -23 28
0 59 -18 59 -34 0 -7 -9 -25 -20 -39 -11 -14 -20 -34 -20 -45 0 -26 35 -108
50 -117 8 -5 10 -24 5 -60 -6 -52 -5 -54 25 -77 39 -28 120 -146 120 -175 0
-11 13 -37 29 -57 44 -55 53 -116 17 -116 -7 0 -29 18 -49 41 -31 34 -39 38
-56 29 -11 -6 -26 -28 -32 -50 -10 -34 -9 -47 9 -97 27 -74 51 -183 45 -199
-6 -15 -36 -24 -86 -24 -30 0 -46 8 -81 40 -67 62 -79 53 -60 -43 15 -72 30
-89 86 -96 l43 -6 6 -70 c3 -43 14 -86 27 -112 29 -55 28 -71 -8 -120 -17 -22
-37 -60 -45 -83 -8 -23 -29 -60 -46 -82 -56 -70 -74 -159 -45 -217 8 -15 24
-67 36 -116 12 -49 26 -97 31 -107 17 -31 61 -53 119 -58 53 -5 55 -6 58 -37
4 -41 13 -47 102 -68 94 -23 106 -22 142 12 56 54 140 30 154 -44 8 -41 25
-50 56 -29 36 25 70 20 106 -17 33 -34 72 -130 72 -178 0 -31 -23 -59 -49 -59
-31 0 -106 65 -126 109 -21 48 -38 51 -76 15 -15 -14 -39 -36 -53 -49 -43 -40
-35 -68 46 -151 71 -73 72 -74 123 -74 40 0 56 5 71 21 14 16 25 19 49 14 16
-3 52 -9 78 -12 40 -4 52 -10 66 -34 9 -15 29 -38 44 -49 25 -20 55 -95 43
-108 -4 -3 -22 2 -41 11 -20 9 -41 17 -48 17 -26 0 -50 28 -56 66 -5 31 -12
41 -35 49 -24 8 -31 6 -47 -13 -21 -26 -17 -43 21 -92 15 -19 34 -50 44 -67
16 -31 16 -33 -5 -54 -31 -31 -91 -22 -159 25 -58 40 -86 41 -123 8 -49 -44
-38 -90 24 -108 23 -7 43 -24 62 -52 l29 -43 63 3 c76 3 95 -9 95 -63 0 -42
13 -57 36 -38 12 9 14 24 8 65 -7 62 11 153 33 161 22 9 117 -24 138 -47 l18
-20 22 20 c19 18 24 19 34 6 7 -8 11 -29 9 -47 -2 -26 -9 -35 -28 -39 -16 -4
-31 -19 -43 -43 -22 -47 -40 -54 -84 -33 -19 9 -39 14 -44 11 -14 -9 -11 -31
6 -45 8 -7 15 -22 15 -35 0 -26 53 -109 83 -130 33 -23 76 -19 88 8 9 20 6 30
-16 63 -28 41 -28 59 2 121 28 60 62 52 113 -26 17 -28 30 -58 28 -68 -2 -10
-20 -29 -41 -42 -34 -22 -36 -26 -22 -41 8 -9 40 -34 70 -55 58 -39 50 -38
158 -19 25 4 37 1 51 -15 16 -18 17 -26 7 -65 -9 -38 -8 -51 5 -80 28 -58 18
-67 -90 -81 -37 -5 -57 -14 -78 -37 -44 -47 -54 -95 -38 -181 17 -92 57 -137
138 -157 49 -11 56 -11 80 7 42 30 83 115 88 181 8 86 13 102 32 102 33 -1
126 -66 157 -110 26 -37 39 -46 72 -52 23 -4 61 -17 85 -29 29 -15 67 -24 118
-27 70 -4 77 -7 115 -42 22 -21 55 -41 72 -45 18 -4 61 -26 95 -49 66 -45 104
-60 178 -71 45 -6 120 -47 120 -65 0 -6 9 -10 21 -10 13 0 24 10 31 31 l11 31
58 -6 c75 -9 133 7 156 41 38 56 81 93 108 93 39 0 149 -82 334 -247 55 -50
93 -75 123 -83 74 -20 103 -9 188 75 43 41 82 75 88 75 5 0 14 -6 20 -13 8
-10 5 -23 -13 -53 -27 -43 -31 -84 -14 -133 13 -36 30 -39 69 -11 69 49 127
32 161 -48 26 -61 42 -72 105 -72 29 0 64 -4 79 -10 35 -13 153 12 211 46 33
20 51 24 74 19 18 -4 44 -2 60 5 30 12 29 13 109 -33 27 -15 37 -16 78 -5 29
7 60 24 80 45 39 38 59 41 115 12 22 -11 50 -18 61 -15 11 2 37 -2 58 -11 50
-19 66 -13 74 31 8 40 36 69 62 64 14 -3 17 -12 15 -40 -3 -45 21 -65 91 -74
61 -8 108 -47 143 -115 25 -50 54 -71 114 -84 56 -12 122 -61 145 -108 18 -37
24 -42 57 -45 50 -4 68 -31 68 -100 0 -63 23 -118 53 -126 11 -3 40 -2 64 1
51 7 78 -11 88 -58 5 -22 12 -29 30 -29 30 0 36 18 28 90 -5 51 -3 64 20 103
21 35 25 52 20 81 -5 35 -2 41 43 84 52 51 104 129 104 157 0 9 -9 28 -20 42
-27 35 -27 106 1 134 24 24 43 20 112 -22 86 -52 136 -33 199 75 23 39 72 101
110 138 65 66 68 71 62 106 -5 31 0 44 25 79 l31 43 138 0 c154 0 173 6 191
63 9 26 8 49 -4 100 -8 36 -14 85 -14 109 1 24 -4 54 -10 67 -9 15 -9 27 -3
33 16 16 46 -6 86 -62 41 -57 88 -90 128 -90 26 0 102 -14 253 -46 50 -10 115
-14 224 -11 136 3 156 1 176 -15 13 -10 45 -21 71 -25 52 -7 51 -10 7 56 -27
40 -28 45 -7 65 22 22 77 20 127 -5 26 -14 74 -25 126 -30 69 -7 100 -17 177
-55 52 -25 102 -57 113 -70 27 -35 49 -30 66 14 22 53 110 92 210 92 47 0 84
7 113 20 36 16 56 18 144 13 94 -6 103 -8 136 -37 31 -28 44 -32 116 -37 45
-3 110 -1 146 3 36 5 95 7 132 3 77 -7 88 2 88 77 1 24 10 68 21 98 35 95 35
106 -1 128 -17 11 -53 22 -80 26 -26 4 -59 15 -73 26 -14 11 -45 29 -70 39
-29 12 -51 31 -61 49 -24 47 -41 56 -68 38 -44 -31 -107 -12 -92 28 3 9 29 23
58 31 36 11 59 25 79 50 15 19 37 35 48 35 22 0 83 -29 141 -68 37 -24 39 -24
81 -8 56 21 89 20 137 -4 22 -11 42 -20 45 -20 3 0 34 27 69 59 56 52 72 61
125 72 50 9 67 18 92 47 31 35 31 34 17 117 -2 15 4 20 36 26 27 4 48 17 70
41 43 49 96 78 142 78 47 0 69 14 169 107 98 92 95 100 -42 131 -54 12 -110
22 -124 22 -15 0 -52 12 -84 26 -44 21 -67 25 -102 21 -25 -3 -59 -1 -76 4
-19 5 -45 5 -68 -1 -40 -11 -144 9 -186 36 -27 17 -49 18 -108 2 -38 -10 -50
-10 -80 5 -19 9 -54 20 -78 23 -23 4 -56 15 -74 25 -34 21 -103 93 -103 108 0
20 -33 41 -66 41 -27 0 -36 5 -43 23 -15 40 -22 259 -10 297 19 57 31 159 29
244 -1 85 13 116 55 116 49 0 59 -47 23 -110 -13 -21 -19 -42 -15 -46 10 -10
105 42 145 79 30 29 34 30 67 18 46 -16 71 -2 85 48 5 21 26 58 45 82 19 24
37 56 41 72 11 53 84 57 84 4 1 -85 55 -93 95 -13 17 34 36 24 57 -31 21 -57
67 -99 95 -89 14 6 12 11 -12 35 -29 31 -28 39 8 79 22 24 57 29 86 10 38 -23
51 -4 51 75 0 47 7 93 20 130 11 31 20 67 20 80 0 32 -32 71 -80 98 -49 28
-65 63 -51 115 5 22 13 71 17 109 3 39 11 79 16 89 6 11 10 56 9 100 -1 55 5
105 19 153 26 94 25 121 -5 193 -21 49 -25 76 -25 153 0 101 -6 117 -83 232
-41 62 -56 69 -166 89 -109 19 -260 103 -261 145 -1 32 -27 87 -63 134 -20 27
-37 54 -37 61 0 7 -14 39 -30 70 -44 82 -27 123 63 156 34 12 47 25 70 68 28
52 28 52 78 52 l50 0 134 -129 c90 -86 144 -130 164 -134 17 -4 40 -20 56 -42
15 -19 32 -35 39 -35 21 -1 101 -61 146 -110 40 -44 52 -51 110 -64 36 -8 75
-17 87 -21 19 -6 32 3 76 48 39 41 63 57 90 62 37 7 40 5 90 -49 62 -66 71
-67 179 -29 l77 27 50 -18 c55 -19 85 -15 101 15 6 11 29 30 50 44 25 16 49
43 64 73 13 27 41 68 60 91 20 24 39 54 42 68 11 42 -19 87 -86 129 -162 102
-146 85 -179 193 -18 57 -39 105 -52 117 -12 10 -35 43 -51 71 -39 69 -70 90
-162 108 -90 17 -122 9 -137 -34 -8 -22 -19 -31 -43 -35 -21 -4 -44 -21 -69
-51 -39 -46 -91 -70 -137 -63 -27 3 -29 20 -14 114 5 37 3 43 -21 63 -34 26
-78 27 -119 2 -18 -11 -61 -22 -102 -26 -59 -6 -77 -4 -98 10 -19 13 -37 16
-70 11 -34 -5 -61 -1 -117 19 -41 14 -121 38 -179 54 -95 25 -114 34 -195 94
-53 39 -98 80 -109 101 -24 45 -41 51 -76 24 -25 -18 -31 -19 -46 -7 -24 20
-11 203 19 265 20 43 20 45 4 91 -9 27 -17 58 -17 70 0 11 -11 54 -25 95 -32
93 -31 107 5 174 16 30 27 60 24 67 -3 7 -23 24 -45 40 -22 15 -41 33 -43 40
-2 6 -9 38 -15 69 -8 36 -24 73 -46 101 -19 25 -39 65 -44 89 -6 23 -19 69
-31 100 -13 38 -20 83 -20 131 0 96 -17 117 -95 117 -53 0 -55 -1 -90 -46 -19
-26 -35 -52 -35 -59 0 -7 -6 -18 -14 -24 -8 -7 -17 -25 -21 -40 -3 -15 -21
-49 -40 -76 -19 -27 -35 -54 -35 -60 0 -25 -37 -43 -104 -48 -77 -7 -105 4
-160 63 -33 36 -96 70 -128 70 -15 0 -29 -11 -40 -30 -20 -35 -31 -37 -58 -10
-15 15 -20 33 -20 70 0 35 -4 52 -15 56 -21 9 -84 -15 -98 -37 -15 -23 -40
-24 -73 -2 -23 14 -32 15 -73 4 -25 -6 -65 -21 -89 -33 -54 -25 -65 -17 -67
51 -2 78 -71 153 -110 121 -21 -17 -18 -60 5 -90 37 -47 16 -120 -41 -151 -27
-14 -64 10 -86 56 -9 19 -24 35 -33 35 -21 0 -50 -61 -50 -106 0 -29 5 -38 32
-52 57 -30 82 -65 101 -138 28 -111 30 -107 -76 -119 -53 -6 -62 -4 -96 19
-38 27 -148 47 -234 44 -28 -2 -61 10 -123 43 -69 36 -86 49 -92 74 l-8 30
-70 -3 c-84 -5 -111 12 -121 73 -7 50 -26 72 -67 80 -17 4 -39 9 -49 12 -23 6
-89 145 -80 170 3 10 15 26 27 35 28 22 14 33 -25 19 -60 -21 -82 -12 -176 72
-30 26 -52 37 -73 37 -17 0 -39 4 -49 9 -14 8 -52 89 -75 165 -5 16 -13 17
-59 12 -48 -6 -56 -4 -94 24 -36 27 -42 37 -45 72 -3 41 -5 43 -108 112 -135
90 -210 171 -210 225 0 25 77 91 153 132 60 32 67 41 86 123 7 31 25 64 46 88
47 51 49 112 6 179 -40 64 -52 107 -60 212 -5 79 -9 92 -25 95 -11 2 -29 -7
-44 -23 -26 -28 -30 -28 -112 -9 -20 4 -33 -2 -63 -31 -39 -38 -43 -54 -26
-103 14 -42 -2 -69 -54 -92 l-42 -18 38 -7 c52 -10 97 -49 97 -85 0 -47 -21
-55 -152 -55 l-120 0 -26 -32 c-15 -17 -36 -46 -47 -64 -11 -19 -46 -50 -77
-71 -31 -21 -66 -51 -78 -68 -12 -16 -29 -30 -39 -30 -25 0 -56 37 -80 93 -15
35 -29 51 -52 61 -57 24 -89 -3 -89 -72 0 -85 -95 -98 -124 -18 -3 10 -2 34 5
53 8 25 22 39 57 56 54 26 66 56 34 90 -11 12 -24 34 -27 50 -13 49 2 75 56
102 44 23 50 29 47 53 -2 22 -11 30 -44 41 -34 12 -46 12 -84 0 -38 -12 -46
-20 -58 -54 -34 -98 -35 -100 -115 -128 -110 -39 -130 -35 -143 31 -5 22 -1
39 15 60 28 40 27 73 -5 103 -27 26 -28 46 -4 105 16 38 8 64 -20 64 -38 0
-59 19 -65 58 -15 86 -23 91 -91 55 -56 -30 -130 -29 -165 3 -18 16 -20 27
-16 94 3 41 8 90 12 108 8 38 4 39 -34 11 -21 -15 -42 -20 -87 -20 -58 0 -60
0 -100 -46 -47 -53 -64 -50 -64 11 0 23 -7 51 -15 62 -14 18 -14 18 -15 -8 0
-40 -10 -57 -41 -73 -44 -23 -57 -19 -109 35 -47 49 -49 50 -108 50 -77 0 -89
-12 -69 -71 25 -75 -1 -106 -98 -116 -45 -5 -60 -11 -72 -30 -9 -13 -35 -35
-58 -49 -35 -20 -45 -33 -53 -67 -19 -74 -105 -136 -160 -116 -34 13 -45 53
-36 134 15 123 3 143 -71 127 -41 -9 -49 -8 -66 9 -15 15 -19 33 -18 92 1 90
7 106 50 126 60 28 53 99 -13 131 -51 25 -55 25 -68 1z"/>
<path d="M5565 12080 c-16 -26 30 -80 55 -65 16 10 12 62 -6 69 -23 9 -42 7
-49 -4z"/>
<path d="M2712 11837 c-18 -21 6 -147 27 -147 61 0 81 75 35 129 -28 33 -45
38 -62 18z"/>
<path d="M5715 11770 c-4 -6 -3 -16 3 -22 6 -6 12 -6 17 2 4 6 3 16 -3 22 -6
6 -12 6 -17 -2z"/>
<path d="M2523 11564 c-6 -16 33 -64 53 -64 20 0 25 31 9 56 -18 27 -53 32
-62 8z"/>
<path d="M147 9564 c-12 -12 -8 -41 7 -53 10 -8 16 -8 25 3 9 10 7 18 -6 35
-10 12 -22 19 -26 15z"/>
<path d="M410 7797 c0 -27 38 -67 63 -67 22 0 21 16 -4 56 -25 40 -59 46 -59
11z"/>
<path d="M320 7476 c0 -9 7 -16 16 -16 17 0 14 22 -4 28 -7 2 -12 -3 -12 -12z"/>
<path d="M806 7007 c-33 -8 -52 -19 -57 -32 -12 -31 -10 -108 4 -135 15 -30
141 -93 167 -85 11 3 32 22 49 41 29 33 30 37 24 97 -7 78 -16 95 -58 113 -40
16 -62 16 -129 1z"/>
<path d="M11778 5679 c-22 -12 -23 -38 -3 -45 19 -8 65 22 65 41 0 17 -36 20
-62 4z"/>
<path d="M12664 5061 c-62 -28 -83 -104 -44 -154 21 -26 101 -60 124 -51 14 5
56 100 56 124 -1 25 -55 95 -75 97 -11 2 -39 -6 -61 -16z"/>
<path d="M8198 2885 c-8 -19 -8 -28 2 -40 23 -28 90 -11 90 23 0 46 -72 60
-92 17z"/>
<path d="M8170 2596 c-31 -25 -59 -37 -94 -41 -77 -11 -82 -16 -101 -101 l-17
-75 26 -40 c31 -46 46 -48 119 -16 61 28 98 67 123 134 10 26 29 64 42 83 13
19 22 45 20 60 -3 21 -9 25 -38 28 -29 2 -45 -4 -80 -32z"/>
<path d="M1916 2579 c-33 -39 -33 -54 0 -76 31 -20 53 -10 66 29 10 30 -6 78
-26 78 -8 0 -26 -14 -40 -31z"/>
<path d="M448 2575 c-38 -26 -59 -72 -50 -107 5 -21 74 -42 108 -34 40 11 59
119 26 149 -25 23 -41 21 -84 -8z"/>
<path d="M5371 2479 c-13 -5 -37 -19 -53 -31 -29 -20 -30 -22 -12 -35 42 -30
136 -7 142 36 6 37 -27 50 -77 30z"/>
<path d="M8920 2333 c-56 -20 -100 -49 -100 -65 0 -30 46 -109 94 -161 l43
-49 44 47 c24 26 47 56 52 67 12 34 -11 83 -58 127 -45 42 -49 43 -75 34z"/>
<path d="M5025 2204 c-22 -22 -55 -89 -55 -111 1 -10 16 -36 35 -57 l33 -40
43 30 c45 31 79 77 79 108 0 10 -15 33 -34 52 -37 37 -75 44 -101 18z"/>
<path d="M1958 2095 c-71 -39 8 -145 84 -114 37 15 45 50 21 91 -22 38 -62 47
-105 23z"/>
<path d="M7219 2099 c-14 -5 -31 -20 -36 -32 -13 -28 -162 -198 -216 -247 -33
-30 -39 -43 -46 -93 -4 -32 -13 -63 -19 -69 -15 -15 -15 -85 -1 -129 16 -46
38 -69 66 -69 52 0 90 -26 108 -74 16 -40 22 -46 54 -51 20 -3 50 -10 66 -16
52 -19 118 -29 139 -23 12 4 37 17 56 30 43 30 73 30 128 2 l43 -23 19 25 c53
70 63 80 75 80 32 0 36 27 10 81 -37 81 -40 110 -16 158 21 41 54 197 45 212
-2 5 -42 32 -88 62 -45 30 -99 75 -120 100 -58 71 -91 87 -172 86 -38 0 -81
-5 -95 -10z"/>
<path d="M5917 1796 c-55 -15 -87 -41 -87 -70 0 -12 9 -46 19 -76 19 -59 40
-76 106 -87 42 -7 77 14 105 60 49 79 2 190 -78 186 -9 0 -38 -6 -65 -13z"/>
<path d="M7914 1561 c-38 -23 -57 -71 -44 -106 8 -21 16 -25 54 -25 85 0 128
72 76 128 -25 27 -46 28 -86 3z"/>
<path d="M8504 1435 c-37 -56 59 -186 116 -155 29 15 51 108 32 136 -12 19
-70 44 -101 44 -21 0 -35 -7 -47 -25z"/>
<path d="M4790 1325 c-14 -8 -37 -14 -53 -15 -43 0 -114 -71 -132 -133 -21
-69 -19 -96 10 -161 l25 -56 63 0 c55 0 70 4 104 29 65 47 89 87 98 161 13
117 11 130 -23 162 -36 31 -55 34 -92 13z"/>
<path d="M10451 1096 c-17 -20 -10 -66 10 -79 40 -25 90 48 57 81 -16 16 -53
15 -67 -2z"/>
<path d="M6254 805 c-15 -23 -25 -118 -13 -129 2 -2 35 -6 74 -8 79 -3 82 0
70 79 -5 35 -13 48 -38 64 -43 26 -73 24 -93 -6z"/>
<path d="M6120 428 c-5 -13 -13 -36 -18 -53 -5 -18 -25 -41 -51 -59 -41 -27
-43 -31 -37 -67 3 -22 9 -58 12 -81 10 -77 14 -88 50 -128 39 -43 58 -49 84
-25 9 8 34 21 56 28 42 15 84 65 84 101 0 12 13 59 30 105 35 103 31 116 -39
123 -40 4 -59 12 -91 41 -46 43 -67 46 -80 15z"/>
</g>
</svg>
